<?xml version="1.0" encoding="UTF-8" standalone="no"?>
<!DOCTYPE svg PUBLIC "-//W3C//DTD SVG 1.1//EN"
 "http://www.w3.org/Graphics/SVG/1.1/DTD/svg11.dtd">
<!-- Generated by graphviz version 2.26.3 (20100126.1600)
 -->
<!-- Title: G Pages: 1 -->
<svg width="598pt" height="1148pt"
 viewBox="0.00 0.00 598.00 1148.00" xmlns="http://www.w3.org/2000/svg" xmlns:xlink="http://www.w3.org/1999/xlink">
<g id="graph1" class="graph" transform="scale(1 1) rotate(0) translate(4 1144)">
<title>G</title>
<polygon fill="white" stroke="white" points="-4,5 -4,-1144 595,-1144 595,5 -4,5"/>
<g id="graph2" class="cluster"><title>cluster_Phly</title>
<polyline fill="none" stroke="gray" points="20,-44 570,-44 "/>
<path fill="none" stroke="gray" d="M570,-44C576,-44 582,-50 582,-56"/>
<polyline fill="none" stroke="gray" points="582,-56 582,-1120 "/>
<path fill="none" stroke="gray" d="M582,-1120C582,-1126 576,-1132 570,-1132"/>
<polyline fill="none" stroke="gray" points="570,-1132 20,-1132 "/>
<path fill="none" stroke="gray" d="M20,-1132C14,-1132 8,-1126 8,-1120"/>
<polyline fill="none" stroke="gray" points="8,-1120 8,-56 "/>
<path fill="none" stroke="gray" d="M8,-56C8,-50 14,-44 20,-44"/>
<text text-anchor="middle" x="295" y="-1118.1" font-family="Times Roman,serif" font-size="11.00" fill="gray">Phly</text>
</g>
<g id="graph3" class="cluster"><title>cluster_Phly\Mustache</title>
<polyline fill="none" stroke="gray" points="28,-52 562,-52 "/>
<path fill="none" stroke="gray" d="M562,-52C568,-52 574,-58 574,-64"/>
<polyline fill="none" stroke="gray" points="574,-64 574,-1090 "/>
<path fill="none" stroke="gray" d="M574,-1090C574,-1096 568,-1102 562,-1102"/>
<polyline fill="none" stroke="gray" points="562,-1102 28,-1102 "/>
<path fill="none" stroke="gray" d="M28,-1102C22,-1102 16,-1096 16,-1090"/>
<polyline fill="none" stroke="gray" points="16,-1090 16,-64 "/>
<path fill="none" stroke="gray" d="M16,-64C16,-58 22,-52 28,-52"/>
<text text-anchor="middle" x="295" y="-1088.1" font-family="Times Roman,serif" font-size="11.00" fill="gray">Mustache</text>
</g>
<g id="graph4" class="cluster"><title>cluster_Phly\Mustache\Exception</title>
<polyline fill="none" stroke="gray" points="356,-214 554,-214 "/>
<path fill="none" stroke="gray" d="M554,-214C560,-214 566,-220 566,-226"/>
<polyline fill="none" stroke="gray" points="566,-226 566,-870 "/>
<path fill="none" stroke="gray" d="M566,-870C566,-876 560,-882 554,-882"/>
<polyline fill="none" stroke="gray" points="554,-882 356,-882 "/>
<path fill="none" stroke="gray" d="M356,-882C350,-882 344,-876 344,-870"/>
<polyline fill="none" stroke="gray" points="344,-870 344,-226 "/>
<path fill="none" stroke="gray" d="M344,-226C344,-220 350,-214 356,-214"/>
<text text-anchor="middle" x="455" y="-868.1" font-family="Times Roman,serif" font-size="11.00" fill="gray">Exception</text>
</g>
<g id="graph5" class="cluster"><title>cluster_Phly\Mustache\Pragma</title>
<polyline fill="none" stroke="gray" points="165,-890 514,-890 "/>
<path fill="none" stroke="gray" d="M514,-890C520,-890 526,-896 526,-902"/>
<polyline fill="none" stroke="gray" points="526,-902 526,-1060 "/>
<path fill="none" stroke="gray" d="M526,-1060C526,-1066 520,-1072 514,-1072"/>
<polyline fill="none" stroke="gray" points="514,-1072 165,-1072 "/>
<path fill="none" stroke="gray" d="M165,-1072C159,-1072 153,-1066 153,-1060"/>
<polyline fill="none" stroke="gray" points="153,-1060 153,-902 "/>
<path fill="none" stroke="gray" d="M153,-902C153,-896 159,-890 165,-890"/>
<text text-anchor="middle" x="339.5" y="-1058.1" font-family="Times Roman,serif" font-size="11.00" fill="gray">Pragma</text>
</g>
<!-- \\Phly\\Mustache\\Exception\\InvalidTemplateException -->
<g id="node4" class="node"><title>\\Phly\\Mustache\\Exception\\InvalidTemplateException</title>
<a xlink:href="Exception.InvalidTemplateException.html" xlink:title="InvalidTemplateException" target="_parent">
<polygon fill="none" stroke="black" points="544,-636 366,-636 366,-600 544,-600 544,-636"/>
<text text-anchor="middle" x="455" y="-615.1" font-family="Courier,monospace" font-size="11.00">InvalidTemplateException</text>
</a>
</g>
<!-- \\Phly\\Mustache\\Exception -->
<g id="node21" class="node"><title>\\Phly\\Mustache\\Exception</title>
<a xlink:href="Exception.html" xlink:title="Exception" target="_parent">
<polygon fill="none" stroke="black" points="255,-555 179,-555 179,-519 255,-519 255,-555"/>
<text text-anchor="middle" x="217" y="-534.1" font-family="Courier,monospace" font-size="11.00">Exception</text>
</a>
</g>
<!-- \\Phly\\Mustache\\Exception\\InvalidTemplateException&#45;&gt;\\Phly\\Mustache\\Exception -->
<g id="edge36" class="edge"><title>\\Phly\\Mustache\\Exception\\InvalidTemplateException&#45;&gt;\\Phly\\Mustache\\Exception</title>
<path fill="none" stroke="black" stroke-dasharray="1,5" d="M374.228,-599.995C363.98,-597.231 353.694,-594.216 344,-591 317.118,-582.082 287.982,-569.886 264.406,-559.34"/>
<polygon fill="none" stroke="black" points="265.553,-556.017 254.999,-555.088 262.67,-562.396 265.553,-556.017"/>
</g>
<!-- \\Exception -->
<g id="node29" class="node"><title>\\Exception</title>
<ellipse fill="none" stroke="black" cx="217" cy="-18" rx="62.9325" ry="18.3848"/>
<text text-anchor="middle" x="217" y="-14.4" font-family="Times Roman,serif" font-size="14.00" fill="gray">\Exception</text>
</g>
<!-- \\Phly\\Mustache\\Exception\\InvalidTemplateException&#45;&gt;\\Exception -->
<g id="edge8" class="edge"><title>\\Phly\\Mustache\\Exception\\InvalidTemplateException&#45;&gt;\\Exception</title>
<path fill="none" stroke="black" d="M365.407,-606.959C357.345,-602.963 349.982,-597.756 344,-591 182.9,-409.072 421.559,-245.514 280,-48 276.904,-43.6798 273.018,-39.9593 268.705,-36.7598"/>
<polygon fill="none" stroke="black" points="270.298,-33.6259 259.978,-31.2284 266.551,-39.5382 270.298,-33.6259"/>
</g>
<!-- \\Phly\\Mustache\\Exception\\TemplateNotFoundException -->
<g id="node5" class="node"><title>\\Phly\\Mustache\\Exception\\TemplateNotFoundException</title>
<a xlink:href="Exception.TemplateNotFoundException.html" xlink:title="TemplateNotFoundException" target="_parent">
<polygon fill="none" stroke="black" points="547,-582 363,-582 363,-546 547,-546 547,-582"/>
<text text-anchor="middle" x="455" y="-561.1" font-family="Courier,monospace" font-size="11.00">TemplateNotFoundException</text>
</a>
</g>
<!-- \\Phly\\Mustache\\Exception\\TemplateNotFoundException&#45;&gt;\\Phly\\Mustache\\Exception -->
<g id="edge38" class="edge"><title>\\Phly\\Mustache\\Exception\\TemplateNotFoundException&#45;&gt;\\Phly\\Mustache\\Exception</title>
<path fill="none" stroke="black" stroke-dasharray="1,5" d="M362.301,-553.484C329.433,-549.755 293.746,-545.706 265.965,-542.555"/>
<polygon fill="none" stroke="black" points="266.058,-539.043 255.727,-541.393 265.269,-545.998 266.058,-539.043"/>
</g>
<!-- \\Phly\\Mustache\\Exception\\TemplateNotFoundException&#45;&gt;\\Exception -->
<g id="edge10" class="edge"><title>\\Phly\\Mustache\\Exception\\TemplateNotFoundException&#45;&gt;\\Exception</title>
<path fill="none" stroke="black" d="M362.336,-551.242C355.49,-547.506 349.231,-542.832 344,-537 197.641,-373.838 408.824,-225.334 280,-48 276.876,-43.6998 272.972,-39.9924 268.648,-36.8008"/>
<polygon fill="none" stroke="black" points="270.232,-33.6613 259.908,-31.2791 266.493,-39.5792 270.232,-33.6613"/>
</g>
<!-- \\Phly\\Mustache\\Exception\\UnbalancedTagException -->
<g id="node6" class="node"><title>\\Phly\\Mustache\\Exception\\UnbalancedTagException</title>
<a xlink:href="Exception.UnbalancedTagException.html" xlink:title="UnbalancedTagException" target="_parent">
<polygon fill="none" stroke="black" points="537,-528 373,-528 373,-492 537,-492 537,-528"/>
<text text-anchor="middle" x="455" y="-507.1" font-family="Courier,monospace" font-size="11.00">UnbalancedTagException</text>
</a>
</g>
<!-- \\Phly\\Mustache\\Exception\\UnbalancedTagException&#45;&gt;\\Phly\\Mustache\\Exception -->
<g id="edge40" class="edge"><title>\\Phly\\Mustache\\Exception\\UnbalancedTagException&#45;&gt;\\Phly\\Mustache\\Exception</title>
<path fill="none" stroke="black" stroke-dasharray="1,5" d="M372.427,-519.368C336.843,-523.404 296.451,-527.987 265.763,-531.468"/>
<polygon fill="none" stroke="black" points="265.291,-527.999 255.749,-532.604 266.08,-534.955 265.291,-527.999"/>
</g>
<!-- \\Phly\\Mustache\\Exception\\UnbalancedTagException&#45;&gt;\\Exception -->
<g id="edge12" class="edge"><title>\\Phly\\Mustache\\Exception\\UnbalancedTagException&#45;&gt;\\Exception</title>
<path fill="none" stroke="black" d="M372.418,-501.786C361.684,-497.536 351.749,-491.501 344,-483 212.36,-338.578 396.109,-205.18 280,-48 276.842,-43.7248 272.916,-40.0338 268.578,-36.8524"/>
<polygon fill="none" stroke="black" points="270.149,-33.7059 259.821,-31.3427 266.421,-39.6307 270.149,-33.7059"/>
</g>
<!-- \\Phly\\Mustache\\Exception\\InvalidTemplatePathException -->
<g id="node7" class="node"><title>\\Phly\\Mustache\\Exception\\InvalidTemplatePathException</title>
<a xlink:href="Exception.InvalidTemplatePathException.html" xlink:title="InvalidTemplatePathException" target="_parent">
<polygon fill="none" stroke="black" points="558,-474 352,-474 352,-438 558,-438 558,-474"/>
<text text-anchor="middle" x="455" y="-453.1" font-family="Courier,monospace" font-size="11.00">InvalidTemplatePathException</text>
</a>
</g>
<!-- \\Phly\\Mustache\\Exception\\InvalidTemplatePathException&#45;&gt;\\Phly\\Mustache\\Exception -->
<g id="edge42" class="edge"><title>\\Phly\\Mustache\\Exception\\InvalidTemplatePathException&#45;&gt;\\Phly\\Mustache\\Exception</title>
<path fill="none" stroke="black" stroke-dasharray="1,5" d="M371.947,-474.023C362.428,-476.73 352.939,-479.726 344,-483 314.139,-493.938 309.294,-502.621 280,-515 275.253,-517.006 270.253,-518.979 265.232,-520.87"/>
<polygon fill="none" stroke="black" points="263.798,-517.668 255.611,-524.393 266.205,-524.241 263.798,-517.668"/>
</g>
<!-- \\Phly\\Mustache\\Exception\\InvalidTemplatePathException&#45;&gt;\\Exception -->
<g id="edge14" class="edge"><title>\\Phly\\Mustache\\Exception\\InvalidTemplatePathException&#45;&gt;\\Exception</title>
<path fill="none" stroke="black" d="M354.248,-437.915C350.552,-435.297 347.107,-432.34 344,-429 227.046,-303.284 383.421,-185.065 280,-48 276.799,-43.7572 272.844,-40.0874 268.488,-36.919"/>
<polygon fill="none" stroke="black" points="270.044,-33.7639 259.711,-31.425 266.33,-39.6974 270.044,-33.7639"/>
</g>
<!-- \\Phly\\Mustache\\Exception\\InvalidPragmaNameException -->
<g id="node8" class="node"><title>\\Phly\\Mustache\\Exception\\InvalidPragmaNameException</title>
<a xlink:href="Exception.InvalidPragmaNameException.html" xlink:title="InvalidPragmaNameException" target="_parent">
<polygon fill="none" stroke="black" points="551,-420 359,-420 359,-384 551,-384 551,-420"/>
<text text-anchor="middle" x="455" y="-399.1" font-family="Courier,monospace" font-size="11.00">InvalidPragmaNameException</text>
</a>
</g>
<!-- \\Phly\\Mustache\\Exception\\InvalidPragmaNameException&#45;&gt;\\Phly\\Mustache\\Exception -->
<g id="edge44" class="edge"><title>\\Phly\\Mustache\\Exception\\InvalidPragmaNameException&#45;&gt;\\Phly\\Mustache\\Exception</title>
<path fill="none" stroke="black" stroke-dasharray="1,5" d="M360.369,-420.043C354.639,-422.638 349.126,-425.606 344,-429 304.273,-455.302 318.4,-486.796 280,-515 275.506,-518.3 270.476,-521.137 265.269,-523.569"/>
<polygon fill="none" stroke="black" points="263.67,-520.443 255.785,-527.519 266.362,-526.905 263.67,-520.443"/>
</g>
<!-- \\Phly\\Mustache\\Exception\\InvalidPragmaNameException&#45;&gt;\\Exception -->
<g id="edge16" class="edge"><title>\\Phly\\Mustache\\Exception\\InvalidPragmaNameException&#45;&gt;\\Exception</title>
<path fill="none" stroke="black" d="M358.841,-386.699C353.408,-383.451 348.385,-379.588 344,-375 241.684,-267.938 370.777,-165.006 280,-48 276.612,-43.633 272.431,-39.8697 267.846,-36.6336"/>
<polygon fill="none" stroke="black" points="269.598,-33.6025 259.243,-31.3616 265.941,-39.571 269.598,-33.6025"/>
</g>
<!-- \\Phly\\Mustache\\Exception\\InvalidStateException -->
<g id="node9" class="node"><title>\\Phly\\Mustache\\Exception\\InvalidStateException</title>
<a xlink:href="Exception.InvalidStateException.html" xlink:title="InvalidStateException" target="_parent">
<polygon fill="none" stroke="black" points="534,-366 376,-366 376,-330 534,-330 534,-366"/>
<text text-anchor="middle" x="455" y="-345.1" font-family="Courier,monospace" font-size="11.00">InvalidStateException</text>
</a>
</g>
<!-- \\Phly\\Mustache\\Exception\\InvalidStateException&#45;&gt;\\Phly\\Mustache\\Exception -->
<g id="edge46" class="edge"><title>\\Phly\\Mustache\\Exception\\InvalidStateException&#45;&gt;\\Phly\\Mustache\\Exception</title>
<path fill="none" stroke="black" stroke-dasharray="1,5" d="M375.855,-357.821C364.33,-361.822 353.252,-367.359 344,-375 291.248,-418.566 330.569,-468.919 280,-515 275.611,-518.999 270.455,-522.279 265.014,-524.967"/>
<polygon fill="none" stroke="black" points="263.497,-521.809 255.674,-528.954 266.246,-528.247 263.497,-521.809"/>
</g>
<!-- \\Phly\\Mustache\\Exception\\InvalidStateException&#45;&gt;\\Exception -->
<g id="edge18" class="edge"><title>\\Phly\\Mustache\\Exception\\InvalidStateException&#45;&gt;\\Exception</title>
<path fill="none" stroke="black" d="M375.86,-340.228C363.988,-336.012 352.798,-329.872 344,-321 256.246,-232.512 358.2,-145.034 280,-48 276.532,-43.6964 272.299,-39.974 267.684,-36.7621"/>
<polygon fill="none" stroke="black" points="269.41,-33.7161 259.046,-31.5171 265.777,-39.6993 269.41,-33.7161"/>
</g>
<!-- \\Phly\\Mustache\\Exception\\InvalidVariableNameException -->
<g id="node10" class="node"><title>\\Phly\\Mustache\\Exception\\InvalidVariableNameException</title>
<a xlink:href="Exception.InvalidVariableNameException.html" xlink:title="InvalidVariableNameException" target="_parent">
<polygon fill="none" stroke="black" points="558,-312 352,-312 352,-276 558,-276 558,-312"/>
<text text-anchor="middle" x="455" y="-291.1" font-family="Courier,monospace" font-size="11.00">InvalidVariableNameException</text>
</a>
</g>
<!-- \\Phly\\Mustache\\Exception\\InvalidVariableNameException&#45;&gt;\\Phly\\Mustache\\Exception -->
<g id="edge48" class="edge"><title>\\Phly\\Mustache\\Exception\\InvalidVariableNameException&#45;&gt;\\Phly\\Mustache\\Exception</title>
<path fill="none" stroke="black" stroke-dasharray="1,5" d="M355.869,-312.063C351.634,-314.674 347.643,-317.637 344,-321 277.282,-382.58 343.642,-450.246 280,-515 275.734,-519.34 270.566,-522.826 265.046,-525.625"/>
<polygon fill="none" stroke="black" points="263.328,-522.553 255.521,-529.716 266.09,-528.985 263.328,-522.553"/>
</g>
<!-- \\Phly\\Mustache\\Exception\\InvalidVariableNameException&#45;&gt;\\Exception -->
<g id="edge20" class="edge"><title>\\Phly\\Mustache\\Exception\\InvalidVariableNameException&#45;&gt;\\Exception</title>
<path fill="none" stroke="black" d="M355.475,-275.929C351.371,-273.318 347.513,-270.356 344,-267 270.676,-196.954 345.74,-125.208 280,-48 276.368,-43.7341 271.992,-40.0304 267.259,-36.8249"/>
<polygon fill="none" stroke="black" points="268.823,-33.6828 258.439,-31.5796 265.245,-39.6993 268.823,-33.6828"/>
</g>
<!-- \\Phly\\Mustache\\Exception\\UnregisteredPragmaException -->
<g id="node11" class="node"><title>\\Phly\\Mustache\\Exception\\UnregisteredPragmaException</title>
<a xlink:href="Exception.UnregisteredPragmaException.html" xlink:title="UnregisteredPragmaException" target="_parent">
<polygon fill="none" stroke="black" points="554,-258 356,-258 356,-222 554,-222 554,-258"/>
<text text-anchor="middle" x="455" y="-237.1" font-family="Courier,monospace" font-size="11.00">UnregisteredPragmaException</text>
</a>
</g>
<!-- \\Phly\\Mustache\\Exception\\UnregisteredPragmaException&#45;&gt;\\Phly\\Mustache\\Exception -->
<g id="edge50" class="edge"><title>\\Phly\\Mustache\\Exception\\UnregisteredPragmaException&#45;&gt;\\Phly\\Mustache\\Exception</title>
<path fill="none" stroke="black" stroke-dasharray="1,5" d="M355.343,-257.935C351.274,-260.582 347.46,-263.588 344,-267 262.948,-346.929 357.066,-431.222 280,-515 275.728,-519.644 270.422,-523.308 264.715,-526.199"/>
<polygon fill="none" stroke="black" points="263.328,-522.985 255.508,-530.134 266.079,-529.422 263.328,-522.985"/>
</g>
<!-- \\Phly\\Mustache\\Exception\\UnregisteredPragmaException&#45;&gt;\\Exception -->
<g id="edge22" class="edge"><title>\\Phly\\Mustache\\Exception\\UnregisteredPragmaException&#45;&gt;\\Exception</title>
<path fill="none" stroke="black" d="M355.348,-225.91C351.332,-223.608 347.522,-220.985 344,-218 282.419,-165.793 334.628,-107.443 280,-48 276.158,-43.8189 271.61,-40.1631 266.744,-36.9805"/>
<polygon fill="none" stroke="black" points="268.133,-33.7399 257.726,-31.7515 264.622,-39.7955 268.133,-33.7399"/>
</g>
<!-- \\Phly\\Mustache\\Exception\\UnbalancedSectionException -->
<g id="node12" class="node"><title>\\Phly\\Mustache\\Exception\\UnbalancedSectionException</title>
<a xlink:href="Exception.UnbalancedSectionException.html" xlink:title="UnbalancedSectionException" target="_parent">
<polygon fill="none" stroke="black" points="551,-852 359,-852 359,-816 551,-816 551,-852"/>
<text text-anchor="middle" x="455" y="-831.1" font-family="Courier,monospace" font-size="11.00">UnbalancedSectionException</text>
</a>
</g>
<!-- \\Phly\\Mustache\\Exception\\UnbalancedSectionException&#45;&gt;\\Phly\\Mustache\\Exception -->
<g id="edge52" class="edge"><title>\\Phly\\Mustache\\Exception\\UnbalancedSectionException&#45;&gt;\\Phly\\Mustache\\Exception</title>
<path fill="none" stroke="black" stroke-dasharray="1,5" d="M358.99,-816.825C353.661,-814.016 348.608,-810.764 344,-807 265.953,-743.255 233.187,-620.482 221.951,-565.199"/>
<polygon fill="none" stroke="black" points="225.328,-564.228 219.984,-555.08 218.456,-565.564 225.328,-564.228"/>
</g>
<!-- \\Phly\\Mustache\\Exception\\UnbalancedSectionException&#45;&gt;\\Exception -->
<g id="edge24" class="edge"><title>\\Phly\\Mustache\\Exception\\UnbalancedSectionException&#45;&gt;\\Exception</title>
<path fill="none" stroke="black" d="M358.998,-819.703C353.413,-816.235 348.321,-812.047 344,-807 233.904,-678.432 376.306,-187.197 280,-48 277.018,-43.6898 273.244,-39.9795 269.032,-36.7896"/>
<polygon fill="none" stroke="black" points="270.784,-33.7548 260.483,-31.2756 266.99,-39.6373 270.784,-33.7548"/>
</g>
<!-- \\Phly\\Mustache\\Exception\\InvalidDelimiterException -->
<g id="node13" class="node"><title>\\Phly\\Mustache\\Exception\\InvalidDelimiterException</title>
<a xlink:href="Exception.InvalidDelimiterException.html" xlink:title="InvalidDelimiterException" target="_parent">
<polygon fill="none" stroke="black" points="547,-798 363,-798 363,-762 547,-762 547,-798"/>
<text text-anchor="middle" x="455" y="-777.1" font-family="Courier,monospace" font-size="11.00">InvalidDelimiterException</text>
</a>
</g>
<!-- \\Phly\\Mustache\\Exception\\InvalidDelimiterException&#45;&gt;\\Phly\\Mustache\\Exception -->
<g id="edge54" class="edge"><title>\\Phly\\Mustache\\Exception\\InvalidDelimiterException&#45;&gt;\\Phly\\Mustache\\Exception</title>
<path fill="none" stroke="black" stroke-dasharray="1,5" d="M362.39,-763.758C355.87,-760.752 349.652,-757.199 344,-753 278.584,-704.402 240.9,-611.265 225.391,-564.796"/>
<polygon fill="none" stroke="black" points="228.66,-563.529 222.25,-555.093 222,-565.685 228.66,-563.529"/>
</g>
<!-- \\Phly\\Mustache\\Exception\\InvalidDelimiterException&#45;&gt;\\Exception -->
<g id="edge26" class="edge"><title>\\Phly\\Mustache\\Exception\\InvalidDelimiterException&#45;&gt;\\Exception</title>
<path fill="none" stroke="black" d="M362.345,-767.605C355.45,-763.8 349.179,-759.009 344,-753 241.297,-633.841 369.919,-177.079 280,-48 276.962,-43.6388 273.115,-39.8912 268.825,-36.6752"/>
<polygon fill="none" stroke="black" points="270.439,-33.5532 260.126,-31.1239 266.673,-39.454 270.439,-33.5532"/>
</g>
<!-- \\Phly\\Mustache\\Exception\\InvalidPartialsException -->
<g id="node14" class="node"><title>\\Phly\\Mustache\\Exception\\InvalidPartialsException</title>
<a xlink:href="Exception.InvalidPartialsException.html" xlink:title="InvalidPartialsException" target="_parent">
<polygon fill="none" stroke="black" points="544,-744 366,-744 366,-708 544,-708 544,-744"/>
<text text-anchor="middle" x="455" y="-723.1" font-family="Courier,monospace" font-size="11.00">InvalidPartialsException</text>
</a>
</g>
<!-- \\Phly\\Mustache\\Exception\\InvalidPartialsException&#45;&gt;\\Phly\\Mustache\\Exception -->
<g id="edge56" class="edge"><title>\\Phly\\Mustache\\Exception\\InvalidPartialsException&#45;&gt;\\Phly\\Mustache\\Exception</title>
<path fill="none" stroke="black" stroke-dasharray="1,5" d="M365.243,-709.833C357.782,-706.818 350.586,-703.242 344,-699 290.91,-664.801 250.601,-600.627 230.724,-564.154"/>
<polygon fill="none" stroke="black" points="233.681,-562.261 225.89,-555.081 227.503,-565.552 233.681,-562.261"/>
</g>
<!-- \\Phly\\Mustache\\Exception\\InvalidPartialsException&#45;&gt;\\Exception -->
<g id="edge28" class="edge"><title>\\Phly\\Mustache\\Exception\\InvalidPartialsException&#45;&gt;\\Exception</title>
<path fill="none" stroke="black" d="M365.274,-715.075C357.237,-711.058 349.917,-705.813 344,-699 248.687,-589.245 363.535,-166.965 280,-48 276.946,-43.6501 273.088,-39.9101 268.791,-36.6986"/>
<polygon fill="none" stroke="black" points="270.4,-33.5732 260.085,-31.1528 266.639,-39.4773 270.4,-33.5732"/>
</g>
<!-- \\Phly\\Mustache\\Exception\\InvalidEscaperException -->
<g id="node15" class="node"><title>\\Phly\\Mustache\\Exception\\InvalidEscaperException</title>
<a xlink:href="Exception.InvalidEscaperException.html" xlink:title="InvalidEscaperException" target="_parent">
<polygon fill="none" stroke="black" points="541,-690 369,-690 369,-654 541,-654 541,-690"/>
<text text-anchor="middle" x="455" y="-669.1" font-family="Courier,monospace" font-size="11.00">InvalidEscaperException</text>
</a>
</g>
<!-- \\Phly\\Mustache\\Exception\\InvalidEscaperException&#45;&gt;\\Phly\\Mustache\\Exception -->
<g id="edge58" class="edge"><title>\\Phly\\Mustache\\Exception\\InvalidEscaperException&#45;&gt;\\Phly\\Mustache\\Exception</title>
<path fill="none" stroke="black" stroke-dasharray="1,5" d="M368.995,-655.375C360.345,-652.442 351.862,-649.01 344,-645 303.054,-624.115 264.035,-587.579 240.31,-562.848"/>
<polygon fill="none" stroke="black" points="242.569,-560.142 233.161,-555.268 237.476,-564.944 242.569,-560.142"/>
</g>
<!-- \\Phly\\Mustache\\Exception\\InvalidEscaperException&#45;&gt;\\Exception -->
<g id="edge30" class="edge"><title>\\Phly\\Mustache\\Exception\\InvalidEscaperException&#45;&gt;\\Exception</title>
<path fill="none" stroke="black" d="M368.826,-662.667C359.411,-658.476 350.796,-652.757 344,-645 168.143,-444.288 434.309,-265.715 280,-48 276.927,-43.6636 273.056,-39.9324 268.752,-36.7263"/>
<polygon fill="none" stroke="black" points="270.353,-33.5971 260.036,-31.1871 266.599,-39.5049 270.353,-33.5971"/>
</g>
<!-- \\Phly\\Mustache\\Pragma\\AbstractPragma -->
<g id="node17" class="node"><title>\\Phly\\Mustache\\Pragma\\AbstractPragma</title>
<a xlink:href="Pragma.AbstractPragma.html" xlink:title="AbstractPragma" target="_parent">
<polygon fill="none" stroke="black" points="272,-1015 162,-1015 162,-979 272,-979 272,-1015"/>
<text text-anchor="middle" x="217" y="-994.1" font-family="Courier,monospace" font-size="11.00">AbstractPragma</text>
</a>
</g>
<!-- \\Phly\\Mustache\\Pragma -->
<g id="node23" class="node"><title>\\Phly\\Mustache\\Pragma</title>
<a xlink:href="Pragma.html" xlink:title="Pragma" target="_parent">
<polygon fill="none" stroke="black" points="81,-1015 25,-1015 25,-979 81,-979 81,-1015"/>
<text text-anchor="middle" x="53" y="-994.1" font-family="Courier,monospace" font-size="11.00">Pragma</text>
</a>
</g>
<!-- \\Phly\\Mustache\\Pragma\\AbstractPragma&#45;&gt;\\Phly\\Mustache\\Pragma -->
<g id="edge60" class="edge"><title>\\Phly\\Mustache\\Pragma\\AbstractPragma&#45;&gt;\\Phly\\Mustache\\Pragma</title>
<path fill="none" stroke="black" stroke-dasharray="1,5" d="M161.477,-997C138.583,-997 112.604,-997 91.8097,-997"/>
<polygon fill="none" stroke="black" points="91.7543,-993.5 81.7543,-997 91.7543,-1000.5 91.7543,-993.5"/>
</g>
<!-- \\Phly\\Mustache\\Pragma\\ImplicitIterator -->
<g id="node18" class="node"><title>\\Phly\\Mustache\\Pragma\\ImplicitIterator</title>
<a xlink:href="Pragma.ImplicitIterator.html" xlink:title="ImplicitIterator" target="_parent">
<polygon fill="none" stroke="black" points="517,-1042 393,-1042 393,-1006 517,-1006 517,-1042"/>
<text text-anchor="middle" x="455" y="-1021.1" font-family="Courier,monospace" font-size="11.00">ImplicitIterator</text>
</a>
</g>
<!-- \\Phly\\Mustache\\Pragma\\ImplicitIterator&#45;&gt;\\Phly\\Mustache\\Pragma\\AbstractPragma -->
<g id="edge32" class="edge"><title>\\Phly\\Mustache\\Pragma\\ImplicitIterator&#45;&gt;\\Phly\\Mustache\\Pragma\\AbstractPragma</title>
<path fill="none" stroke="black" d="M392.468,-1016.91C358.769,-1013.08 317.204,-1008.37 282.988,-1004.49"/>
<polygon fill="none" stroke="black" points="282.953,-1000.96 272.622,-1003.31 282.164,-1007.92 282.953,-1000.96"/>
</g>
<!-- \\Phly\\Mustache\\Pragma\\SubViews -->
<g id="node19" class="node"><title>\\Phly\\Mustache\\Pragma\\SubViews</title>
<a xlink:href="Pragma.SubViews.html" xlink:title="SubViews" target="_parent">
<polygon fill="none" stroke="black" points="490,-988 420,-988 420,-952 490,-952 490,-988"/>
<text text-anchor="middle" x="455" y="-967.1" font-family="Courier,monospace" font-size="11.00">SubViews</text>
</a>
</g>
<!-- \\Phly\\Mustache\\Pragma\\SubViews&#45;&gt;\\Phly\\Mustache\\Pragma\\AbstractPragma -->
<g id="edge34" class="edge"><title>\\Phly\\Mustache\\Pragma\\SubViews&#45;&gt;\\Phly\\Mustache\\Pragma\\AbstractPragma</title>
<path fill="none" stroke="black" d="M419.369,-974.042C383.398,-978.123 327.003,-984.521 282.873,-989.527"/>
<polygon fill="none" stroke="black" points="282.341,-986.065 272.799,-990.67 283.13,-993.02 282.341,-986.065"/>
</g>
<!-- \\Phly\\Mustache\\Pragma\\SubView -->
<g id="node20" class="node"><title>\\Phly\\Mustache\\Pragma\\SubView</title>
<a xlink:href="Pragma.SubView.html" xlink:title="SubView" target="_parent">
<polygon fill="none" stroke="black" points="487,-934 423,-934 423,-898 487,-898 487,-934"/>
<text text-anchor="middle" x="455" y="-913.1" font-family="Courier,monospace" font-size="11.00">SubView</text>
</a>
</g>
<!-- \\Phly\\Mustache\\Renderer -->
<g id="node22" class="node"><title>\\Phly\\Mustache\\Renderer</title>
<a xlink:href="Renderer.html" xlink:title="Renderer" target="_parent">
<polygon fill="none" stroke="black" points="490,-204 420,-204 420,-168 490,-168 490,-204"/>
<text text-anchor="middle" x="455" y="-183.1" font-family="Courier,monospace" font-size="11.00">Renderer</text>
</a>
</g>
<!-- \\Phly\\Mustache\\Lexer -->
<g id="node24" class="node"><title>\\Phly\\Mustache\\Lexer</title>
<a xlink:href="Lexer.html" xlink:title="Lexer" target="_parent">
<polygon fill="none" stroke="black" points="482,-150 428,-150 428,-114 482,-114 482,-150"/>
<text text-anchor="middle" x="455" y="-129.1" font-family="Courier,monospace" font-size="11.00">Lexer</text>
</a>
</g>
<!-- \\Phly\\Mustache\\Mustache -->
<g id="node25" class="node"><title>\\Phly\\Mustache\\Mustache</title>
<a xlink:href="Mustache.html" xlink:title="Mustache" target="_parent">
<polygon fill="none" stroke="black" points="490,-96 420,-96 420,-60 490,-60 490,-96"/>
<text text-anchor="middle" x="455" y="-75.1" font-family="Courier,monospace" font-size="11.00">Mustache</text>
</a>
</g>
</g>
</svg>
