<?xml version="1.0" encoding="UTF-8" standalone="no"?>
<!DOCTYPE svg PUBLIC "-//W3C//DTD SVG 1.1//EN"
 "http://www.w3.org/Graphics/SVG/1.1/DTD/svg11.dtd">
<!-- Generated by graphviz version 2.26.3 (20100126.1600)
 -->
<!-- Title: G Pages: 1 -->
<svg width="744pt" height="1392pt"
 viewBox="0.00 0.00 744.00 1392.00" xmlns="http://www.w3.org/2000/svg" xmlns:xlink="http://www.w3.org/1999/xlink">
<g id="graph1" class="graph" transform="scale(1 1) rotate(0) translate(4 1388)">
<title>G</title>
<polygon fill="white" stroke="white" points="-4,5 -4,-1388 741,-1388 741,5 -4,5"/>
<g id="graph2" class="cluster"><title>cluster_Phly</title>
<polyline fill="none" stroke="gray" points="20,-98 716,-98 "/>
<path fill="none" stroke="gray" d="M716,-98C722,-98 728,-104 728,-110"/>
<polyline fill="none" stroke="gray" points="728,-110 728,-1364 "/>
<path fill="none" stroke="gray" d="M728,-1364C728,-1370 722,-1376 716,-1376"/>
<polyline fill="none" stroke="gray" points="716,-1376 20,-1376 "/>
<path fill="none" stroke="gray" d="M20,-1376C14,-1376 8,-1370 8,-1364"/>
<polyline fill="none" stroke="gray" points="8,-1364 8,-110 "/>
<path fill="none" stroke="gray" d="M8,-110C8,-104 14,-98 20,-98"/>
<text text-anchor="middle" x="368" y="-1362.1" font-family="Times Roman,serif" font-size="11.00" fill="gray">Phly</text>
</g>
<g id="graph3" class="cluster"><title>cluster_Phly\Mustache</title>
<polyline fill="none" stroke="gray" points="28,-106 708,-106 "/>
<path fill="none" stroke="gray" d="M708,-106C714,-106 720,-112 720,-118"/>
<polyline fill="none" stroke="gray" points="720,-118 720,-1334 "/>
<path fill="none" stroke="gray" d="M720,-1334C720,-1340 714,-1346 708,-1346"/>
<polyline fill="none" stroke="gray" points="708,-1346 28,-1346 "/>
<path fill="none" stroke="gray" d="M28,-1346C22,-1346 16,-1340 16,-1334"/>
<polyline fill="none" stroke="gray" points="16,-1334 16,-118 "/>
<path fill="none" stroke="gray" d="M16,-118C16,-112 22,-106 28,-106"/>
<text text-anchor="middle" x="368" y="-1332.1" font-family="Times Roman,serif" font-size="11.00" fill="gray">Mustache</text>
</g>
<g id="graph4" class="cluster"><title>cluster_Phly\Mustache\Exception</title>
<polyline fill="none" stroke="gray" points="502,-268 700,-268 "/>
<path fill="none" stroke="gray" d="M700,-268C706,-268 712,-274 712,-280"/>
<polyline fill="none" stroke="gray" points="712,-280 712,-1032 "/>
<path fill="none" stroke="gray" d="M712,-1032C712,-1038 706,-1044 700,-1044"/>
<polyline fill="none" stroke="gray" points="700,-1044 502,-1044 "/>
<path fill="none" stroke="gray" d="M502,-1044C496,-1044 490,-1038 490,-1032"/>
<polyline fill="none" stroke="gray" points="490,-1032 490,-280 "/>
<path fill="none" stroke="gray" d="M490,-280C490,-274 496,-268 502,-268"/>
<text text-anchor="middle" x="601" y="-1030.1" font-family="Times Roman,serif" font-size="11.00" fill="gray">Exception</text>
</g>
<g id="graph5" class="cluster"><title>cluster_Phly\Mustache\Pragma</title>
<polyline fill="none" stroke="gray" points="238,-1134 660,-1134 "/>
<path fill="none" stroke="gray" d="M660,-1134C666,-1134 672,-1140 672,-1146"/>
<polyline fill="none" stroke="gray" points="672,-1146 672,-1304 "/>
<path fill="none" stroke="gray" d="M672,-1304C672,-1310 666,-1316 660,-1316"/>
<polyline fill="none" stroke="gray" points="660,-1316 238,-1316 "/>
<path fill="none" stroke="gray" d="M238,-1316C232,-1316 226,-1310 226,-1304"/>
<polyline fill="none" stroke="gray" points="226,-1304 226,-1146 "/>
<path fill="none" stroke="gray" d="M226,-1146C226,-1140 232,-1134 238,-1134"/>
<text text-anchor="middle" x="449" y="-1302.1" font-family="Times Roman,serif" font-size="11.00" fill="gray">Pragma</text>
</g>
<g id="graph6" class="cluster"><title>cluster_Phly\Mustache\Resolver</title>
<polyline fill="none" stroke="gray" points="228,-1052 656,-1052 "/>
<path fill="none" stroke="gray" d="M656,-1052C662,-1052 668,-1058 668,-1064"/>
<polyline fill="none" stroke="gray" points="668,-1064 668,-1114 "/>
<path fill="none" stroke="gray" d="M668,-1114C668,-1120 662,-1126 656,-1126"/>
<polyline fill="none" stroke="gray" points="656,-1126 228,-1126 "/>
<path fill="none" stroke="gray" d="M228,-1126C222,-1126 216,-1120 216,-1114"/>
<polyline fill="none" stroke="gray" points="216,-1114 216,-1064 "/>
<path fill="none" stroke="gray" d="M216,-1064C216,-1058 222,-1052 228,-1052"/>
<text text-anchor="middle" x="442" y="-1112.1" font-family="Times Roman,serif" font-size="11.00" fill="gray">Resolver</text>
</g>
<!-- \\Phly\\Mustache\\Exception\\InvalidTemplateException -->
<g id="node4" class="node"><title>\\Phly\\Mustache\\Exception\\InvalidTemplateException</title>
<a xlink:href="Exception.InvalidTemplateException.html" xlink:title="InvalidTemplateException" target="_parent">
<polygon fill="none" stroke="black" points="690,-528 512,-528 512,-492 690,-492 690,-528"/>
<text text-anchor="middle" x="601" y="-507.1" font-family="Courier,monospace" font-size="11.00">InvalidTemplateException</text>
</a>
</g>
<!-- \\Phly\\Mustache\\Exception -->
<g id="node26" class="node"><title>\\Phly\\Mustache\\Exception</title>
<a xlink:href="Exception.html" xlink:title="Exception" target="_parent">
<polygon fill="none" stroke="black" points="328,-663 252,-663 252,-627 328,-627 328,-663"/>
<text text-anchor="middle" x="290" y="-642.1" font-family="Courier,monospace" font-size="11.00">Exception</text>
</a>
</g>
<!-- \\Phly\\Mustache\\Exception\\InvalidTemplateException&#45;&gt;\\Phly\\Mustache\\Exception -->
<g id="edge42" class="edge"><title>\\Phly\\Mustache\\Exception\\InvalidTemplateException&#45;&gt;\\Phly\\Mustache\\Exception</title>
<path fill="none" stroke="black" stroke-dasharray="1,5" d="M511.41,-525.875C503.872,-528.951 496.615,-532.621 490,-537 450.273,-563.302 466.725,-598.272 426,-623 399.986,-638.796 366.233,-644.324 338.861,-645.89"/>
<polygon fill="none" stroke="black" points="338.559,-642.399 328.712,-646.309 338.848,-649.393 338.559,-642.399"/>
</g>
<!-- \\Exception -->
<g id="node35" class="node"><title>\\Exception</title>
<ellipse fill="none" stroke="black" cx="290" cy="-72" rx="62.9325" ry="18.3848"/>
<text text-anchor="middle" x="290" y="-68.4" font-family="Times Roman,serif" font-size="14.00" fill="gray">\Exception</text>
</g>
<!-- \\Phly\\Mustache\\Exception\\InvalidTemplateException&#45;&gt;\\Exception -->
<g id="edge10" class="edge"><title>\\Phly\\Mustache\\Exception\\InvalidTemplateException&#45;&gt;\\Exception</title>
<path fill="none" stroke="black" d="M511.472,-498.527C503.451,-494.606 496.079,-489.534 490,-483 373.046,-357.284 544.299,-226.452 426,-102 409.748,-84.9025 386.131,-76.4796 363.122,-72.6027"/>
<polygon fill="none" stroke="black" points="363.366,-69.1024 352.974,-71.1669 362.385,-76.0333 363.366,-69.1024"/>
</g>
<!-- \\Phly\\Mustache\\Exception\\TemplateNotFoundException -->
<g id="node5" class="node"><title>\\Phly\\Mustache\\Exception\\TemplateNotFoundException</title>
<a xlink:href="Exception.TemplateNotFoundException.html" xlink:title="TemplateNotFoundException" target="_parent">
<polygon fill="none" stroke="black" points="693,-474 509,-474 509,-438 693,-438 693,-474"/>
<text text-anchor="middle" x="601" y="-453.1" font-family="Courier,monospace" font-size="11.00">TemplateNotFoundException</text>
</a>
</g>
<!-- \\Phly\\Mustache\\Exception\\TemplateNotFoundException&#45;&gt;\\Phly\\Mustache\\Exception -->
<g id="edge44" class="edge"><title>\\Phly\\Mustache\\Exception\\TemplateNotFoundException&#45;&gt;\\Phly\\Mustache\\Exception</title>
<path fill="none" stroke="black" stroke-dasharray="1,5" d="M508.436,-471.343C501.828,-474.546 495.582,-478.39 490,-483 437.248,-526.566 480.415,-581.531 426,-623 401.348,-641.787 366.806,-647.191 338.703,-647.948"/>
<polygon fill="none" stroke="black" points="338.641,-644.448 328.671,-648.032 338.7,-651.448 338.641,-644.448"/>
</g>
<!-- \\Phly\\Mustache\\Exception\\TemplateNotFoundException&#45;&gt;\\Exception -->
<g id="edge12" class="edge"><title>\\Phly\\Mustache\\Exception\\TemplateNotFoundException&#45;&gt;\\Exception</title>
<path fill="none" stroke="black" d="M508.463,-442.743C501.636,-439.107 495.344,-434.592 490,-429 387.684,-321.938 529.461,-207.956 426,-102 409.593,-85.1975 386.059,-76.8265 363.168,-72.9077"/>
<polygon fill="none" stroke="black" points="363.471,-69.4152 353.073,-71.4475 362.469,-76.3431 363.471,-69.4152"/>
</g>
<!-- \\Phly\\Mustache\\Exception\\UnbalancedTagException -->
<g id="node6" class="node"><title>\\Phly\\Mustache\\Exception\\UnbalancedTagException</title>
<a xlink:href="Exception.UnbalancedTagException.html" xlink:title="UnbalancedTagException" target="_parent">
<polygon fill="none" stroke="black" points="683,-420 519,-420 519,-384 683,-384 683,-420"/>
<text text-anchor="middle" x="601" y="-399.1" font-family="Courier,monospace" font-size="11.00">UnbalancedTagException</text>
</a>
</g>
<!-- \\Phly\\Mustache\\Exception\\UnbalancedTagException&#45;&gt;\\Phly\\Mustache\\Exception -->
<g id="edge46" class="edge"><title>\\Phly\\Mustache\\Exception\\UnbalancedTagException&#45;&gt;\\Phly\\Mustache\\Exception</title>
<path fill="none" stroke="black" stroke-dasharray="1,5" d="M518.274,-412.005C507.887,-416.037 498.088,-421.534 490,-429 423.282,-490.58 495.075,-564.076 426,-623 402.258,-643.253 367.388,-648.576 338.902,-648.927"/>
<polygon fill="none" stroke="black" points="338.755,-645.426 328.729,-648.85 338.702,-652.426 338.755,-645.426"/>
</g>
<!-- \\Phly\\Mustache\\Exception\\UnbalancedTagException&#45;&gt;\\Exception -->
<g id="edge14" class="edge"><title>\\Phly\\Mustache\\Exception\\UnbalancedTagException&#45;&gt;\\Exception</title>
<path fill="none" stroke="black" d="M518.488,-392.971C507.879,-388.818 497.96,-383.027 490,-375 402.246,-286.512 514.7,-189.54 426,-102 409.36,-85.5779 385.889,-77.2813 363.12,-73.315"/>
<polygon fill="none" stroke="black" points="363.488,-69.8313 353.082,-71.8263 362.461,-76.7556 363.488,-69.8313"/>
</g>
<!-- \\Phly\\Mustache\\Exception\\InvalidTemplatePathException -->
<g id="node7" class="node"><title>\\Phly\\Mustache\\Exception\\InvalidTemplatePathException</title>
<a xlink:href="Exception.InvalidTemplatePathException.html" xlink:title="InvalidTemplatePathException" target="_parent">
<polygon fill="none" stroke="black" points="704,-366 498,-366 498,-330 704,-330 704,-366"/>
<text text-anchor="middle" x="601" y="-345.1" font-family="Courier,monospace" font-size="11.00">InvalidTemplatePathException</text>
</a>
</g>
<!-- \\Phly\\Mustache\\Exception\\InvalidTemplatePathException&#45;&gt;\\Phly\\Mustache\\Exception -->
<g id="edge48" class="edge"><title>\\Phly\\Mustache\\Exception\\InvalidTemplatePathException&#45;&gt;\\Phly\\Mustache\\Exception</title>
<path fill="none" stroke="black" stroke-dasharray="1,5" d="M501.094,-366.098C497.118,-368.705 493.389,-371.658 490,-375 408.948,-454.929 510.115,-546.302 426,-623 402.782,-644.17 367.581,-649.407 338.808,-649.487"/>
<polygon fill="none" stroke="black" points="338.594,-645.983 328.533,-649.304 338.469,-652.982 338.594,-645.983"/>
</g>
<!-- \\Phly\\Mustache\\Exception\\InvalidTemplatePathException&#45;&gt;\\Exception -->
<g id="edge16" class="edge"><title>\\Phly\\Mustache\\Exception\\InvalidTemplatePathException&#45;&gt;\\Exception</title>
<path fill="none" stroke="black" d="M501.475,-329.929C497.371,-327.318 493.513,-324.356 490,-321 416.676,-250.954 500.072,-171.254 426,-102 409.076,-86.1773 385.768,-77.9965 363.226,-73.9535"/>
<polygon fill="none" stroke="black" points="363.709,-70.4867 353.292,-72.4192 362.641,-77.4047 363.709,-70.4867"/>
</g>
<!-- \\Phly\\Mustache\\Exception\\InvalidPragmaNameException -->
<g id="node8" class="node"><title>\\Phly\\Mustache\\Exception\\InvalidPragmaNameException</title>
<a xlink:href="Exception.InvalidPragmaNameException.html" xlink:title="InvalidPragmaNameException" target="_parent">
<polygon fill="none" stroke="black" points="697,-1014 505,-1014 505,-978 697,-978 697,-1014"/>
<text text-anchor="middle" x="601" y="-993.1" font-family="Courier,monospace" font-size="11.00">InvalidPragmaNameException</text>
</a>
</g>
<!-- \\Phly\\Mustache\\Exception\\InvalidPragmaNameException&#45;&gt;\\Phly\\Mustache\\Exception -->
<g id="edge50" class="edge"><title>\\Phly\\Mustache\\Exception\\InvalidPragmaNameException&#45;&gt;\\Phly\\Mustache\\Exception</title>
<path fill="none" stroke="black" stroke-dasharray="1,5" d="M504.927,-977.934C499.677,-975.341 494.654,-972.38 490,-969 382.593,-890.986 320.624,-735.989 298.9,-672.796"/>
<polygon fill="none" stroke="black" points="302.152,-671.486 295.645,-663.125 295.518,-673.719 302.152,-671.486"/>
</g>
<!-- \\Phly\\Mustache\\Exception\\InvalidPragmaNameException&#45;&gt;\\Exception -->
<g id="edge18" class="edge"><title>\\Phly\\Mustache\\Exception\\InvalidPragmaNameException&#45;&gt;\\Exception</title>
<path fill="none" stroke="black" d="M504.689,-981.597C499.216,-978.148 494.231,-973.993 490,-969 365.11,-821.605 552.467,-248.044 426,-102 410.281,-83.8476 386.29,-75.2644 362.812,-71.5577"/>
<polygon fill="none" stroke="black" points="363.175,-68.0755 352.806,-70.254 362.27,-75.0168 363.175,-68.0755"/>
</g>
<!-- \\Phly\\Mustache\\Exception\\InvalidStateException -->
<g id="node9" class="node"><title>\\Phly\\Mustache\\Exception\\InvalidStateException</title>
<a xlink:href="Exception.InvalidStateException.html" xlink:title="InvalidStateException" target="_parent">
<polygon fill="none" stroke="black" points="680,-960 522,-960 522,-924 680,-924 680,-960"/>
<text text-anchor="middle" x="601" y="-939.1" font-family="Courier,monospace" font-size="11.00">InvalidStateException</text>
</a>
</g>
<!-- \\Phly\\Mustache\\Exception\\InvalidStateException&#45;&gt;\\Phly\\Mustache\\Exception -->
<g id="edge52" class="edge"><title>\\Phly\\Mustache\\Exception\\InvalidStateException&#45;&gt;\\Phly\\Mustache\\Exception</title>
<path fill="none" stroke="black" stroke-dasharray="1,5" d="M521.711,-929.945C510.523,-926.225 499.584,-921.361 490,-915 394.859,-851.857 328.281,-727.416 302.211,-672.336"/>
<polygon fill="none" stroke="black" points="305.349,-670.783 297.956,-663.194 299.002,-673.737 305.349,-670.783"/>
</g>
<!-- \\Phly\\Mustache\\Exception\\InvalidStateException&#45;&gt;\\Exception -->
<g id="edge20" class="edge"><title>\\Phly\\Mustache\\Exception\\InvalidStateException&#45;&gt;\\Exception</title>
<path fill="none" stroke="black" d="M521.791,-935.729C509.627,-931.387 498.358,-924.815 490,-915 372.508,-777.02 544.968,-238.709 426,-102 410.237,-83.886 386.236,-75.3113 362.762,-71.6008"/>
<polygon fill="none" stroke="black" points="363.128,-68.119 352.759,-70.2947 362.222,-75.0601 363.128,-68.119"/>
</g>
<!-- \\Phly\\Mustache\\Exception\\InvalidVariableNameException -->
<g id="node10" class="node"><title>\\Phly\\Mustache\\Exception\\InvalidVariableNameException</title>
<a xlink:href="Exception.InvalidVariableNameException.html" xlink:title="InvalidVariableNameException" target="_parent">
<polygon fill="none" stroke="black" points="704,-906 498,-906 498,-870 704,-870 704,-906"/>
<text text-anchor="middle" x="601" y="-885.1" font-family="Courier,monospace" font-size="11.00">InvalidVariableNameException</text>
</a>
</g>
<!-- \\Phly\\Mustache\\Exception\\InvalidVariableNameException&#45;&gt;\\Phly\\Mustache\\Exception -->
<g id="edge54" class="edge"><title>\\Phly\\Mustache\\Exception\\InvalidVariableNameException&#45;&gt;\\Phly\\Mustache\\Exception</title>
<path fill="none" stroke="black" stroke-dasharray="1,5" d="M508.187,-869.894C501.858,-867.313 495.728,-864.366 490,-861 406.761,-812.092 337.465,-717.748 306.86,-671.655"/>
<polygon fill="none" stroke="black" points="309.669,-669.555 301.262,-663.107 303.813,-673.391 309.669,-669.555"/>
</g>
<!-- \\Phly\\Mustache\\Exception\\InvalidVariableNameException&#45;&gt;\\Exception -->
<g id="edge22" class="edge"><title>\\Phly\\Mustache\\Exception\\InvalidVariableNameException&#45;&gt;\\Exception</title>
<path fill="none" stroke="black" d="M499.432,-869.871C496.008,-867.258 492.838,-864.314 490,-861 379.904,-732.432 537.471,-229.377 426,-102 410.256,-84.0095 386.386,-75.4408 363.016,-71.6995"/>
<polygon fill="none" stroke="black" points="363.429,-68.2238 353.055,-70.3783 362.508,-75.163 363.429,-68.2238"/>
</g>
<!-- \\Phly\\Mustache\\Exception\\UnregisteredPragmaException -->
<g id="node11" class="node"><title>\\Phly\\Mustache\\Exception\\UnregisteredPragmaException</title>
<a xlink:href="Exception.UnregisteredPragmaException.html" xlink:title="UnregisteredPragmaException" target="_parent">
<polygon fill="none" stroke="black" points="700,-852 502,-852 502,-816 700,-816 700,-852"/>
<text text-anchor="middle" x="601" y="-831.1" font-family="Courier,monospace" font-size="11.00">UnregisteredPragmaException</text>
</a>
</g>
<!-- \\Phly\\Mustache\\Exception\\UnregisteredPragmaException&#45;&gt;\\Phly\\Mustache\\Exception -->
<g id="edge56" class="edge"><title>\\Phly\\Mustache\\Exception\\UnregisteredPragmaException&#45;&gt;\\Phly\\Mustache\\Exception</title>
<path fill="none" stroke="black" stroke-dasharray="1,5" d="M511.595,-815.985C504.138,-813.367 496.843,-810.388 490,-807 418.22,-771.462 348.905,-706.267 313.795,-670.37"/>
<polygon fill="none" stroke="black" points="316.303,-667.928 306.834,-663.175 311.272,-672.796 316.303,-667.928"/>
</g>
<!-- \\Phly\\Mustache\\Exception\\UnregisteredPragmaException&#45;&gt;\\Exception -->
<g id="edge24" class="edge"><title>\\Phly\\Mustache\\Exception\\UnregisteredPragmaException&#45;&gt;\\Exception</title>
<path fill="none" stroke="black" d="M501.355,-817.237C497.194,-814.297 493.367,-810.906 490,-807 387.297,-687.841 529.978,-220.048 426,-102 410.198,-84.0601 386.315,-75.5028 362.95,-71.7567"/>
<polygon fill="none" stroke="black" points="363.368,-68.2814 352.994,-70.4324 362.445,-75.2203 363.368,-68.2814"/>
</g>
<!-- \\Phly\\Mustache\\Exception\\UnbalancedSectionException -->
<g id="node12" class="node"><title>\\Phly\\Mustache\\Exception\\UnbalancedSectionException</title>
<a xlink:href="Exception.UnbalancedSectionException.html" xlink:title="UnbalancedSectionException" target="_parent">
<polygon fill="none" stroke="black" points="697,-798 505,-798 505,-762 697,-762 697,-798"/>
<text text-anchor="middle" x="601" y="-777.1" font-family="Courier,monospace" font-size="11.00">UnbalancedSectionException</text>
</a>
</g>
<!-- \\Phly\\Mustache\\Exception\\UnbalancedSectionException&#45;&gt;\\Phly\\Mustache\\Exception -->
<g id="edge58" class="edge"><title>\\Phly\\Mustache\\Exception\\UnbalancedSectionException&#45;&gt;\\Phly\\Mustache\\Exception</title>
<path fill="none" stroke="black" stroke-dasharray="1,5" d="M516.952,-761.995C507.752,-759.305 498.609,-756.308 490,-753 430.322,-730.068 366.078,-692.906 326.948,-668.71"/>
<polygon fill="none" stroke="black" points="328.375,-665.475 318.037,-663.155 324.671,-671.415 328.375,-665.475"/>
</g>
<!-- \\Phly\\Mustache\\Exception\\UnbalancedSectionException&#45;&gt;\\Exception -->
<g id="edge26" class="edge"><title>\\Phly\\Mustache\\Exception\\UnbalancedSectionException&#45;&gt;\\Exception</title>
<path fill="none" stroke="black" d="M504.827,-765.479C499.321,-762.058 494.291,-757.942 490,-753 394.687,-643.245 522.487,-210.724 426,-102 410.132,-84.1192 386.233,-75.5753 362.875,-71.8234"/>
<polygon fill="none" stroke="black" points="363.297,-68.3489 352.922,-70.4956 362.372,-75.2874 363.297,-68.3489"/>
</g>
<!-- \\Phly\\Mustache\\Exception\\InvalidDelimiterException -->
<g id="node13" class="node"><title>\\Phly\\Mustache\\Exception\\InvalidDelimiterException</title>
<a xlink:href="Exception.InvalidDelimiterException.html" xlink:title="InvalidDelimiterException" target="_parent">
<polygon fill="none" stroke="black" points="693,-744 509,-744 509,-708 693,-708 693,-744"/>
<text text-anchor="middle" x="601" y="-723.1" font-family="Courier,monospace" font-size="11.00">InvalidDelimiterException</text>
</a>
</g>
<!-- \\Phly\\Mustache\\Exception\\InvalidDelimiterException&#45;&gt;\\Phly\\Mustache\\Exception -->
<g id="edge60" class="edge"><title>\\Phly\\Mustache\\Exception\\InvalidDelimiterException&#45;&gt;\\Phly\\Mustache\\Exception</title>
<path fill="none" stroke="black" stroke-dasharray="1,5" d="M525.704,-707.955C513.747,-705.012 501.526,-701.957 490,-699 438.133,-685.692 378.95,-669.599 338.503,-658.461"/>
<polygon fill="none" stroke="black" points="339.21,-655.026 328.639,-655.741 337.349,-661.774 339.21,-655.026"/>
</g>
<!-- \\Phly\\Mustache\\Exception\\InvalidDelimiterException&#45;&gt;\\Exception -->
<g id="edge28" class="edge"><title>\\Phly\\Mustache\\Exception\\InvalidDelimiterException&#45;&gt;\\Exception</title>
<path fill="none" stroke="black" d="M508.449,-713.515C501.532,-709.728 495.228,-704.967 490,-699 314.143,-498.288 604.004,-300.81 426,-102 410.053,-84.1891 386.137,-75.6613 362.786,-71.9025"/>
<polygon fill="none" stroke="black" points="363.214,-68.4287 352.838,-70.5705 362.285,-75.3668 363.214,-68.4287"/>
</g>
<!-- \\Phly\\Mustache\\Exception\\InvalidPartialsException -->
<g id="node14" class="node"><title>\\Phly\\Mustache\\Exception\\InvalidPartialsException</title>
<a xlink:href="Exception.InvalidPartialsException.html" xlink:title="InvalidPartialsException" target="_parent">
<polygon fill="none" stroke="black" points="690,-690 512,-690 512,-654 690,-654 690,-690"/>
<text text-anchor="middle" x="601" y="-669.1" font-family="Courier,monospace" font-size="11.00">InvalidPartialsException</text>
</a>
</g>
<!-- \\Phly\\Mustache\\Exception\\InvalidPartialsException&#45;&gt;\\Phly\\Mustache\\Exception -->
<g id="edge62" class="edge"><title>\\Phly\\Mustache\\Exception\\InvalidPartialsException&#45;&gt;\\Phly\\Mustache\\Exception</title>
<path fill="none" stroke="black" stroke-dasharray="1,5" d="M511.463,-664.227C455.242,-659.346 384.9,-653.239 338.771,-649.234"/>
<polygon fill="none" stroke="black" points="339.002,-645.741 328.737,-648.363 338.397,-652.715 339.002,-645.741"/>
</g>
<!-- \\Phly\\Mustache\\Exception\\InvalidPartialsException&#45;&gt;\\Exception -->
<g id="edge30" class="edge"><title>\\Phly\\Mustache\\Exception\\InvalidPartialsException&#45;&gt;\\Exception</title>
<path fill="none" stroke="black" d="M511.407,-660.959C503.345,-656.963 495.982,-651.756 490,-645 328.9,-463.072 589.046,-282.186 426,-102 410.102,-84.4306 386.446,-75.9163 363.302,-72.099"/>
<polygon fill="none" stroke="black" points="363.47,-68.5894 353.087,-70.6988 362.519,-75.5246 363.47,-68.5894"/>
</g>
<!-- \\Phly\\Mustache\\Exception\\InvalidTokensException -->
<g id="node15" class="node"><title>\\Phly\\Mustache\\Exception\\InvalidTokensException</title>
<a xlink:href="Exception.InvalidTokensException.html" xlink:title="InvalidTokensException" target="_parent">
<polygon fill="none" stroke="black" points="683,-636 519,-636 519,-600 683,-600 683,-636"/>
<text text-anchor="middle" x="601" y="-615.1" font-family="Courier,monospace" font-size="11.00">InvalidTokensException</text>
</a>
</g>
<!-- \\Phly\\Mustache\\Exception\\InvalidTokensException&#45;&gt;\\Phly\\Mustache\\Exception -->
<g id="edge64" class="edge"><title>\\Phly\\Mustache\\Exception\\InvalidTokensException&#45;&gt;\\Phly\\Mustache\\Exception</title>
<path fill="none" stroke="black" stroke-dasharray="1,5" d="M518.474,-625.165C461.305,-630.128 387.118,-636.569 339.042,-640.742"/>
<polygon fill="none" stroke="black" points="338.558,-637.271 328.898,-641.623 339.163,-644.245 338.558,-637.271"/>
</g>
<!-- \\Phly\\Mustache\\Exception\\InvalidTokensException&#45;&gt;\\Exception -->
<g id="edge32" class="edge"><title>\\Phly\\Mustache\\Exception\\InvalidTokensException&#45;&gt;\\Exception</title>
<path fill="none" stroke="black" d="M518.296,-609.897C507.579,-605.632 497.681,-599.563 490,-591 343.641,-427.838 574.104,-263.58 426,-102 409.99,-84.5328 386.307,-76.0425 363.173,-72.2159"/>
<polygon fill="none" stroke="black" points="363.35,-68.7072 352.966,-70.8095 362.394,-75.6417 363.35,-68.7072"/>
</g>
<!-- \\Phly\\Mustache\\Exception\\InvalidEscaperException -->
<g id="node16" class="node"><title>\\Phly\\Mustache\\Exception\\InvalidEscaperException</title>
<a xlink:href="Exception.InvalidEscaperException.html" xlink:title="InvalidEscaperException" target="_parent">
<polygon fill="none" stroke="black" points="687,-582 515,-582 515,-546 687,-546 687,-582"/>
<text text-anchor="middle" x="601" y="-561.1" font-family="Courier,monospace" font-size="11.00">InvalidEscaperException</text>
</a>
</g>
<!-- \\Phly\\Mustache\\Exception\\InvalidEscaperException&#45;&gt;\\Phly\\Mustache\\Exception -->
<g id="edge66" class="edge"><title>\\Phly\\Mustache\\Exception\\InvalidEscaperException&#45;&gt;\\Phly\\Mustache\\Exception</title>
<path fill="none" stroke="black" stroke-dasharray="1,5" d="M517.947,-582.023C508.428,-584.73 498.939,-587.726 490,-591 460.139,-601.938 456.266,-613.238 426,-623 397.766,-632.107 364.965,-637.554 338.65,-640.749"/>
<polygon fill="none" stroke="black" points="338.077,-637.292 328.54,-641.906 338.873,-644.246 338.077,-637.292"/>
</g>
<!-- \\Phly\\Mustache\\Exception\\InvalidEscaperException&#45;&gt;\\Exception -->
<g id="edge34" class="edge"><title>\\Phly\\Mustache\\Exception\\InvalidEscaperException&#45;&gt;\\Exception</title>
<path fill="none" stroke="black" d="M514.841,-554.289C505.485,-550.153 496.881,-544.549 490,-537 358.36,-392.578 559.185,-244.998 426,-102 409.923,-84.738 386.347,-76.276 363.323,-72.4138"/>
<polygon fill="none" stroke="black" points="363.554,-68.9119 353.164,-70.9877 362.581,-75.8439 363.554,-68.9119"/>
</g>
<!-- \\Phly\\Mustache\\Exception\\BadMethodCallException -->
<g id="node17" class="node"><title>\\Phly\\Mustache\\Exception\\BadMethodCallException</title>
<a xlink:href="Exception.BadMethodCallException.html" xlink:title="BadMethodCallException" target="_parent">
<polygon fill="none" stroke="black" points="683,-312 519,-312 519,-276 683,-276 683,-312"/>
<text text-anchor="middle" x="601" y="-291.1" font-family="Courier,monospace" font-size="11.00">BadMethodCallException</text>
</a>
</g>
<!-- \\Phly\\Mustache\\Exception\\BadMethodCallException&#45;&gt;\\Phly\\Mustache\\Exception -->
<g id="edge68" class="edge"><title>\\Phly\\Mustache\\Exception\\BadMethodCallException&#45;&gt;\\Phly\\Mustache\\Exception</title>
<path fill="none" stroke="black" stroke-dasharray="1,5" d="M518.332,-302.876C507.744,-307.05 497.874,-312.888 490,-321 394.438,-419.451 525.339,-528.362 426,-623 403.174,-644.746 367.798,-649.931 338.848,-649.844"/>
<polygon fill="none" stroke="black" points="338.589,-646.337 328.508,-649.594 338.42,-653.335 338.589,-646.337"/>
</g>
<!-- \\BadMethodCallException -->
<g id="node49" class="node"><title>\\BadMethodCallException</title>
<ellipse fill="none" stroke="black" cx="290" cy="-18" rx="135.765" ry="18.3848"/>
<text text-anchor="middle" x="290" y="-14.4" font-family="Times Roman,serif" font-size="14.00" fill="gray">\BadMethodCallException</text>
</g>
<!-- \\Phly\\Mustache\\Exception\\BadMethodCallException&#45;&gt;\\BadMethodCallException -->
<g id="edge36" class="edge"><title>\\Phly\\Mustache\\Exception\\BadMethodCallException&#45;&gt;\\BadMethodCallException</title>
<path fill="none" stroke="black" d="M518.407,-288.367C507.938,-284.717 498.081,-279.465 490,-272 413.005,-200.87 502.983,-116.142 426,-45 420.952,-40.3349 415.338,-36.3745 409.347,-33.0198"/>
<polygon fill="none" stroke="black" points="410.834,-29.8503 400.322,-28.5265 407.714,-36.1166 410.834,-29.8503"/>
</g>
<!-- \\Phly\\Mustache\\Pragma\\AbstractPragma -->
<g id="node19" class="node"><title>\\Phly\\Mustache\\Pragma\\AbstractPragma</title>
<a xlink:href="Pragma.AbstractPragma.html" xlink:title="AbstractPragma" target="_parent">
<polygon fill="none" stroke="black" points="345,-1259 235,-1259 235,-1223 345,-1223 345,-1259"/>
<text text-anchor="middle" x="290" y="-1238.1" font-family="Courier,monospace" font-size="11.00">AbstractPragma</text>
</a>
</g>
<!-- \\Phly\\Mustache\\Pragma -->
<g id="node28" class="node"><title>\\Phly\\Mustache\\Pragma</title>
<a xlink:href="Pragma.html" xlink:title="Pragma" target="_parent">
<polygon fill="none" stroke="black" points="81,-1259 25,-1259 25,-1223 81,-1223 81,-1259"/>
<text text-anchor="middle" x="53" y="-1238.1" font-family="Courier,monospace" font-size="11.00">Pragma</text>
</a>
</g>
<!-- \\Phly\\Mustache\\Pragma\\AbstractPragma&#45;&gt;\\Phly\\Mustache\\Pragma -->
<g id="edge72" class="edge"><title>\\Phly\\Mustache\\Pragma\\AbstractPragma&#45;&gt;\\Phly\\Mustache\\Pragma</title>
<path fill="none" stroke="black" stroke-dasharray="1,5" d="M234.434,-1241C190.663,-1241 130.755,-1241 91.965,-1241"/>
<polygon fill="none" stroke="black" points="91.6154,-1237.5 81.6154,-1241 91.6153,-1244.5 91.6154,-1237.5"/>
</g>
<!-- \\Phly\\Mustache\\Pragma\\ImplicitIterator -->
<g id="node20" class="node"><title>\\Phly\\Mustache\\Pragma\\ImplicitIterator</title>
<a xlink:href="Pragma.ImplicitIterator.html" xlink:title="ImplicitIterator" target="_parent">
<polygon fill="none" stroke="black" points="663,-1286 539,-1286 539,-1250 663,-1250 663,-1286"/>
<text text-anchor="middle" x="601" y="-1265.1" font-family="Courier,monospace" font-size="11.00">ImplicitIterator</text>
</a>
</g>
<!-- \\Phly\\Mustache\\Pragma\\ImplicitIterator&#45;&gt;\\Phly\\Mustache\\Pragma\\AbstractPragma -->
<g id="edge38" class="edge"><title>\\Phly\\Mustache\\Pragma\\ImplicitIterator&#45;&gt;\\Phly\\Mustache\\Pragma\\AbstractPragma</title>
<path fill="none" stroke="black" d="M538.439,-1262.57C485.448,-1257.97 409.713,-1251.39 355.817,-1246.71"/>
<polygon fill="none" stroke="black" points="355.946,-1243.21 345.68,-1245.83 355.34,-1250.19 355.946,-1243.21"/>
</g>
<!-- \\Phly\\Mustache\\Pragma\\SubViews -->
<g id="node21" class="node"><title>\\Phly\\Mustache\\Pragma\\SubViews</title>
<a xlink:href="Pragma.SubViews.html" xlink:title="SubViews" target="_parent">
<polygon fill="none" stroke="black" points="636,-1232 566,-1232 566,-1196 636,-1196 636,-1232"/>
<text text-anchor="middle" x="601" y="-1211.1" font-family="Courier,monospace" font-size="11.00">SubViews</text>
</a>
</g>
<!-- \\Phly\\Mustache\\Pragma\\SubViews&#45;&gt;\\Phly\\Mustache\\Pragma\\AbstractPragma -->
<g id="edge40" class="edge"><title>\\Phly\\Mustache\\Pragma\\SubViews&#45;&gt;\\Phly\\Mustache\\Pragma\\AbstractPragma</title>
<path fill="none" stroke="black" d="M565.324,-1217.1C514.286,-1221.53 419.551,-1229.75 355.643,-1235.3"/>
<polygon fill="none" stroke="black" points="355.322,-1231.82 345.662,-1236.17 355.928,-1238.79 355.322,-1231.82"/>
</g>
<!-- \\Phly\\Mustache\\Pragma\\SubView -->
<g id="node22" class="node"><title>\\Phly\\Mustache\\Pragma\\SubView</title>
<a xlink:href="Pragma.SubView.html" xlink:title="SubView" target="_parent">
<polygon fill="none" stroke="black" points="633,-1178 569,-1178 569,-1142 633,-1142 633,-1178"/>
<text text-anchor="middle" x="601" y="-1157.1" font-family="Courier,monospace" font-size="11.00">SubView</text>
</a>
</g>
<!-- \\Phly\\Mustache\\Resolver\\DefaultResolver -->
<g id="node24" class="node"><title>\\Phly\\Mustache\\Resolver\\DefaultResolver</title>
<a xlink:href="Resolver.DefaultResolver.html" xlink:title="DefaultResolver" target="_parent">
<polygon fill="none" stroke="black" points="660,-1096 542,-1096 542,-1060 660,-1060 660,-1096"/>
<text text-anchor="middle" x="601" y="-1075.1" font-family="Courier,monospace" font-size="11.00">DefaultResolver</text>
</a>
</g>
<!-- \\Phly\\Mustache\\Resolver\\ResolverInterface -->
<g id="node25" class="node"><title>\\Phly\\Mustache\\Resolver\\ResolverInterface</title>
<a xlink:href="Resolver.ResolverInterface.html" xlink:title="ResolverInterface" target="_parent">
<polygon fill="none" stroke="black" points="355,-1096 225,-1096 225,-1060 355,-1060 355,-1096"/>
<text text-anchor="middle" x="290" y="-1075.1" font-family="Courier,monospace" font-size="11.00">ResolverInterface</text>
</a>
</g>
<!-- \\Phly\\Mustache\\Resolver\\DefaultResolver&#45;&gt;\\Phly\\Mustache\\Resolver\\ResolverInterface -->
<g id="edge70" class="edge"><title>\\Phly\\Mustache\\Resolver\\DefaultResolver&#45;&gt;\\Phly\\Mustache\\Resolver\\ResolverInterface</title>
<path fill="none" stroke="black" stroke-dasharray="1,5" d="M541.771,-1078C491.853,-1078 420.112,-1078 365.971,-1078"/>
<polygon fill="none" stroke="black" points="365.733,-1074.5 355.733,-1078 365.733,-1081.5 365.733,-1074.5"/>
</g>
<!-- \\Phly\\Mustache\\Renderer -->
<g id="node27" class="node"><title>\\Phly\\Mustache\\Renderer</title>
<a xlink:href="Renderer.html" xlink:title="Renderer" target="_parent">
<polygon fill="none" stroke="black" points="636,-258 566,-258 566,-222 636,-222 636,-258"/>
<text text-anchor="middle" x="601" y="-237.1" font-family="Courier,monospace" font-size="11.00">Renderer</text>
</a>
</g>
<!-- \\Phly\\Mustache\\Lexer -->
<g id="node29" class="node"><title>\\Phly\\Mustache\\Lexer</title>
<a xlink:href="Lexer.html" xlink:title="Lexer" target="_parent">
<polygon fill="none" stroke="black" points="628,-204 574,-204 574,-168 628,-168 628,-204"/>
<text text-anchor="middle" x="601" y="-183.1" font-family="Courier,monospace" font-size="11.00">Lexer</text>
</a>
</g>
<!-- \\Phly\\Mustache\\Mustache -->
<g id="node30" class="node"><title>\\Phly\\Mustache\\Mustache</title>
<a xlink:href="Mustache.html" xlink:title="Mustache" target="_parent">
<polygon fill="none" stroke="black" points="636,-150 566,-150 566,-114 636,-114 636,-150"/>
<text text-anchor="middle" x="601" y="-129.1" font-family="Courier,monospace" font-size="11.00">Mustache</text>
</a>
</g>
</g>
</svg>
